<svg version="1.1" xmlns="http://www.w3.org/2000/svg" style="display: block;" viewBox="0 0 2048 2048" width="1024" height="1024" preserveAspectRatio="none">
<path transform="translate(0,0)" fill="rgb(61,50,152)" d="M 358.064 880.275 L 359.168 880.349 C 386.986 882.036 419.728 880.104 447.271 880.282 C 486.16 880.534 525.815 877.445 553.525 910.951 C 594.536 960.54 581.117 1030.18 524.913 1059.89 C 509.237 1065.23 497.706 1065.84 481.295 1067.26 C 476.032 1067.72 464.012 1068.74 459.475 1070.34 C 448.658 1070.34 437.841 1070.26 427.024 1070.11 L 427.127 1176.06 C 404.447 1175.87 380.826 1177.12 358.304 1175.84 C 357.374 1139.02 358.057 1100.06 358.143 1063.1 L 358.231 917.491 L 358.064 880.275 z"/>
<path transform="translate(0,0)" fill="rgb(33,28,85)" d="M 358.231 917.491 C 358.897 926.82 358.907 935.964 359.006 945.305 C 381.598 945.765 404.196 945.899 426.792 945.705 C 426.875 958.933 426.877 972.162 426.799 985.39 C 426.772 990.972 426.439 1005.2 427.156 1010.41 L 430.992 1011.22 C 437.617 1027.97 451.466 1052.47 459.475 1070.34 C 448.658 1070.34 437.841 1070.26 427.024 1070.11 L 427.127 1176.06 C 404.447 1175.87 380.826 1177.12 358.304 1175.84 C 357.374 1139.02 358.057 1100.06 358.143 1063.1 L 358.231 917.491 z"/>
<path transform="translate(0,0)" fill="rgb(254,254,254)" d="M 427.84 945.529 C 448.557 945.985 485.855 940.623 499.969 955.216 C 517.561 973.405 508.097 1007.79 480.774 1010.6 C 463.571 1012.36 447.615 1010.37 430.992 1011.22 L 427.156 1010.41 C 428.828 996.639 427.886 961.22 427.84 945.529 z"/>
<path transform="translate(0,0)" fill="rgb(15,88,74)" d="M 1175.31 966.559 C 1188.51 968.99 1205.68 981.129 1214.7 991.149 C 1240.2 1019.45 1236.29 1059.99 1236.49 1095.36 C 1236.63 1122.02 1237.42 1149.82 1236.47 1176.42 C 1220.5 1175.54 1194.53 1175.67 1178.29 1176.19 C 1178.03 1168.24 1177.96 1159.02 1177.29 1151.2 C 1158.76 1183.1 1105.51 1189.74 1075.7 1172.12 C 1062.21 1164.32 1052.37 1151.48 1048.34 1136.43 C 1047.84 1134.47 1047.42 1132.5 1047.07 1130.51 C 1034.97 1046.95 1114.59 1043.51 1175.12 1046.37 C 1176.05 1042.87 1175.23 1039.01 1174.87 1035.2 C 1176.85 1022.63 1175.51 981.049 1175.31 966.559 z M 1176.34 1084.28 C 1160.02 1081.6 1128.61 1082.39 1114.58 1092.3 C 1113.29 1093.21 1112.04 1094.16 1110.81 1095.15 C 1089.37 1133.65 1146.48 1146.53 1167.32 1120.68 C 1176.99 1108.68 1177.14 1098.9 1176.34 1084.28 z"/>
<path transform="translate(0,0)" fill="rgb(232,40,70)" d="M 1047.07 1130.51 C 1034.97 1046.95 1114.59 1043.51 1175.12 1046.37 C 1177.01 1050.94 1175.82 1077.37 1176.34 1084.28 C 1160.02 1081.6 1128.61 1082.39 1114.58 1092.3 C 1113.29 1093.21 1112.04 1094.16 1110.81 1095.15 C 1090.91 1102.45 1066.71 1120.48 1047.07 1130.51 z"/>
<path transform="translate(0,0)" fill="rgb(67,17,63)" d="M 248.72 960.392 C 282.56 956.645 313.926 969.819 337.843 993.155 C 324.024 1009.85 308.634 1023.54 295.111 1039.6 C 286.884 1029.32 277.905 1020.97 264.326 1019.4 C 199.947 1011.92 195.63 1116.34 255.933 1121.49 C 272.347 1122.89 284.499 1113.91 295.632 1103.35 C 303.82 1110.73 316.051 1124.31 324.023 1132.66 C 329.148 1137.84 334.309 1142.99 339.506 1148.1 C 320.625 1165.32 300.637 1177.33 274.884 1180.43 C 243.774 1183.96 213.184 1178.74 187.944 1159.3 C 140.718 1122.93 133.621 1046.39 170.035 1000.12 C 190.669 973.905 216.085 963.953 248.72 960.392 z"/>
<path transform="translate(0,0)" fill="rgb(33,28,85)" d="M 893.919 967.113 C 953.719 950.754 1011.11 968.544 1029.65 1034.03 C 1032.81 1045.2 1035.12 1057.32 1035.25 1068.96 C 1035.27 1075.85 1035.24 1082.18 1034.94 1089.06 C 986.735 1089.34 938.533 1089.32 890.333 1089.01 L 888.706 1078.6 C 888.151 1075.76 887.956 1071.34 887.721 1068.34 L 827.927 1067.94 C 830.5 1019.9 848.153 986.471 893.919 967.113 z M 890.28 1047.14 L 973.162 1047.32 C 966.673 1018.93 948.881 1008.78 920.838 1014.84 C 902.649 1021.4 896.502 1029.41 890.28 1047.14 z"/>
<path transform="translate(0,0)" fill="rgb(142,44,128)" d="M 893.919 967.113 C 896.957 974.067 903.443 982.63 907.48 989.49 C 912.563 998.127 916.448 1005.84 920.838 1014.84 C 902.649 1021.4 896.502 1029.41 890.28 1047.14 C 889.454 1053.06 887.925 1062.29 888.472 1068.07 C 888.625 1071.27 888.958 1075.53 888.706 1078.6 C 888.151 1075.76 887.956 1071.34 887.721 1068.34 L 827.927 1067.94 C 830.5 1019.9 848.153 986.471 893.919 967.113 z"/>
<path transform="translate(0,0)" fill="rgb(232,40,70)" d="M 888.472 1068.07 C 937.025 1069.15 986.964 1067.17 1035.25 1068.96 C 1035.27 1075.85 1035.24 1082.18 1034.94 1089.06 C 986.735 1089.34 938.533 1089.32 890.333 1089.01 L 888.706 1078.6 C 888.958 1075.53 888.625 1071.27 888.472 1068.07 z"/>
<path transform="translate(0,0)" fill="rgb(249,189,31)" d="M 605.339 880.561 C 633.134 881.557 661.73 880.869 689.614 880.939 C 732.309 881.046 768.58 875.914 800.729 910.068 C 824.385 935.198 832.446 981.742 818.38 1013.08 C 792.098 1011.02 756.224 1014.8 735.079 1011.44 C 754.021 997.103 766.361 974.791 746.032 953.007 C 734.491 940.641 691.536 944.915 673.382 945.111 L 605.334 945.076 C 605.185 923.571 605.187 902.065 605.339 880.561 z"/>
<path transform="translate(0,0)" fill="rgb(67,17,63)" d="M 605.334 945.076 L 673.382 945.111 C 677.579 956.187 672.07 1005.8 674.649 1011.07 L 676.3 1011.66 C 687.078 1029.01 695.606 1053.33 706.161 1071.03 C 695.079 1070.7 683.994 1070.5 672.908 1070.44 L 673.138 1137.3 C 673.196 1149.06 672.844 1164.31 673.725 1175.84 C 659.601 1176.99 618.824 1177.12 605.042 1175.9 C 605.825 1114.55 605.837 1052.17 605.131 990.841 C 604.975 977.344 606.859 957.379 605.334 945.076 z"/>
<path transform="translate(0,0)" fill="rgb(235,121,38)" d="M 676.3 1011.66 C 692.806 1011.75 719.899 1010.21 735.079 1011.44 C 756.224 1014.8 792.098 1011.02 818.38 1013.08 C 804.521 1038.59 798.042 1045.31 774.198 1061.16 C 795.142 1100.67 821.099 1138.73 840.628 1176.89 L 764.147 1176.92 C 749.508 1153.26 736.404 1125.34 722.542 1101.03 C 718.677 1094.25 710.164 1076.63 706.161 1071.03 C 695.606 1053.33 687.078 1029.01 676.3 1011.66 z"/>
<path transform="translate(0,0)" fill="rgb(33,28,85)" d="M 1487.4 965.038 C 1497.27 965.157 1546.41 963.849 1550.13 965.35 C 1554.42 967.084 1591.39 1078.56 1596.13 1088.9 L 1596.22 1089.62 C 1605.21 1104.4 1620.22 1154.09 1628.92 1173.08 L 1627.63 1175.4 C 1620.49 1177.01 1569.34 1177.3 1564.01 1175.28 C 1551.79 1148.85 1543.69 1119.36 1533.94 1091.84 C 1518.89 1049.39 1502.78 1007.34 1487.4 965.038 z"/>
<path transform="translate(0,0)" fill="rgb(23,177,178)" d="M 1596.22 1089.62 C 1605.21 1104.4 1620.22 1154.09 1628.92 1173.08 L 1627.63 1175.4 C 1620.49 1177.01 1569.34 1177.3 1564.01 1175.28 C 1570.84 1155.2 1579.82 1135.35 1586.41 1115.07 C 1589.12 1106.74 1592.43 1097.41 1596.22 1089.62 z"/>
<path transform="translate(0,0)" fill="rgb(33,28,85)" d="M 1411.12 964.98 L 1472.9 964.883 L 1473.03 1015.16 C 1473.02 1065.54 1474.46 1124.34 1473.05 1174.05 C 1469.83 1176.15 1419.27 1175.13 1411.11 1175.3 C 1410.45 1140.22 1410.09 1091.39 1411.76 1056.94 C 1410.48 1046.56 1411.08 1026.98 1411.13 1015.82 C 1410.97 998.876 1410.97 981.927 1411.12 964.98 z"/>
<path transform="translate(0,0)" fill="rgb(23,177,178)" d="M 1411.76 1056.94 C 1418.11 1067.2 1425.19 1082.08 1430.84 1093.1 L 1458.24 1145.88 C 1461.55 1152.24 1469.74 1169.23 1473.05 1174.05 C 1469.83 1176.15 1419.27 1175.13 1411.11 1175.3 C 1410.45 1140.22 1410.09 1091.39 1411.76 1056.94 z"/>
<path transform="translate(0,0)" fill="rgb(232,40,70)" d="M 1411.12 964.98 L 1472.9 964.883 L 1473.03 1015.16 L 1411.13 1015.82 C 1410.97 998.876 1410.97 981.927 1411.12 964.98 z"/>
<path transform="translate(0,0)" fill="rgb(23,177,178)" d="M 827.927 1067.94 L 887.721 1068.34 C 887.956 1071.34 888.151 1075.76 888.706 1078.6 L 890.333 1089.01 C 897.381 1108.47 909.241 1123.77 931.531 1126.66 C 953.182 1129.47 967.244 1120.51 983.631 1108.17 C 993.142 1115.51 1013.95 1138.67 1023.65 1148.47 C 1022.41 1149.92 1021.09 1151.3 1019.71 1152.62 C 995.772 1175.7 962.573 1182.29 930.431 1181.03 C 866.085 1178.52 825.958 1131.6 827.927 1067.94 z"/>
<path transform="translate(0,0)" fill="rgb(15,88,74)" d="M 1691.46 1071.72 L 1692.1 1069.51 C 1695.51 1066.97 1715.32 1068.12 1720.71 1068.23 C 1730.92 1068.96 1740.75 1068.63 1750.96 1068.44 C 1751.49 1075.91 1752.21 1080.98 1753.47 1088.39 C 1766.41 1125.4 1801.1 1135.26 1834.7 1117.9 C 1838.69 1115.83 1843.76 1110.95 1847.25 1107.92 C 1852.5 1112.02 1883.86 1144.26 1886.85 1148.95 C 1864.65 1169.98 1840.15 1179.33 1809.97 1180.92 C 1740.07 1184.6 1694.51 1140.81 1691.46 1071.72 z"/>
<path transform="translate(0,0)" fill="rgb(232,40,70)" d="M 1280.41 1019.9 C 1285.62 1016.65 1328.55 1020.56 1340.14 1017.93 C 1340.21 1034.96 1340.19 1051.99 1340.08 1069.02 C 1339.99 1085.75 1337.29 1107.09 1347.36 1120.92 C 1362.04 1129.47 1366 1126.98 1381.56 1121.54 C 1385.52 1137.69 1390.04 1154.12 1393.62 1170.27 C 1372.7 1177.42 1356.47 1183.03 1333.87 1179.2 C 1264.12 1167.37 1281.26 1071.56 1280.41 1019.9 z"/>
<path transform="translate(0,0)" fill="rgb(142,44,128)" d="M 1308.74 905.424 C 1318.71 901.469 1328.77 897.742 1338.91 894.246 C 1340.27 909.083 1340.46 948.959 1339.71 964.121 C 1356.1 963.675 1371.81 964.262 1388.04 964.137 C 1388.69 981.103 1389.12 1000.15 1388.63 1017.14 C 1380.98 1017.57 1343.56 1016.36 1340.14 1017.93 C 1328.55 1020.56 1285.62 1016.65 1280.41 1019.9 C 1277.74 1014.55 1253.81 1020.04 1245.42 1016.58 C 1244.3 1014.09 1244.94 1009.59 1245.12 1006.62 C 1244.68 993.135 1245.03 978.272 1244.76 964.445 C 1256.7 964.154 1268.96 963.979 1280.84 965.095 L 1280.82 916.041 C 1286.29 914.828 1302.53 907.862 1308.74 905.424 z"/>
<path transform="translate(0,0)" fill="rgb(61,50,152)" d="M 1308.74 905.424 C 1319.55 944.418 1289.49 994.941 1249.96 1005.44 C 1248.36 1005.87 1246.74 1006.26 1245.12 1006.62 C 1244.68 993.135 1245.03 978.272 1244.76 964.445 C 1256.7 964.154 1268.96 963.979 1280.84 965.095 L 1280.82 916.041 C 1286.29 914.828 1302.53 907.862 1308.74 905.424 z"/>
<path transform="translate(0,0)" fill="rgb(235,121,38)" d="M 1639.42 964.971 C 1660.73 964.992 1683.04 965.314 1704.27 964.962 L 1628.92 1173.08 C 1620.22 1154.09 1605.21 1104.4 1596.22 1089.62 L 1596.13 1088.9 C 1604.81 1067.52 1612.03 1043.15 1619.7 1021.42 C 1626.43 1002.35 1633.89 984.648 1639.42 964.971 z"/>
<path transform="translate(0,0)" fill="rgb(33,28,85)" d="M 524.913 1059.89 C 548.636 1096.89 569.847 1139.86 593.876 1176.11 C 568.991 1176.79 542.574 1176.2 517.548 1176.02 C 499.161 1140.97 478.876 1104.92 459.475 1070.34 C 464.012 1068.74 476.032 1067.72 481.295 1067.26 C 497.706 1065.84 509.237 1065.23 524.913 1059.89 z"/>
<path transform="translate(0,0)" fill="rgb(249,189,31)" d="M 1761.94 964.576 C 1830.99 948.954 1881.87 979.412 1896.75 1048.9 L 1897.26 1051.35 C 1883.63 1052.38 1851.3 1052.59 1837.69 1052.17 C 1834.92 1050.32 1836.06 1051.61 1835.12 1047.36 C 1834.98 1046.34 1834.81 1045.33 1834.6 1044.32 C 1829.16 1017.69 1806.86 1009.16 1782.36 1014.93 C 1775.45 998.188 1768.64 981.403 1761.94 964.576 z"/>
<path transform="translate(0,0)" fill="rgb(249,189,31)" d="M 1050.43 987.847 C 1052.66 986.281 1054.95 984.792 1057.29 983.382 C 1095.92 960.295 1131.93 955.329 1175.31 966.559 C 1175.51 981.049 1176.85 1022.63 1174.87 1035.2 C 1154.06 999.754 1114.72 1013.78 1084.94 1026.57 C 1074.64 1012.92 1062.34 1000.09 1050.43 987.847 z"/>
<path transform="translate(0,0)" fill="rgb(33,28,85)" d="M 1754.09 1046.92 C 1779.36 1047.13 1810.65 1045.97 1835.12 1047.36 C 1836.06 1051.61 1834.92 1050.32 1837.69 1052.17 C 1851.3 1052.59 1883.63 1052.38 1897.26 1051.35 L 1897.11 1068.29 L 1897.05 1088.91 C 1861.16 1087.82 1828.27 1088.91 1792.5 1088.97 C 1782.62 1088.99 1762.86 1089.32 1753.47 1088.39 C 1752.21 1080.98 1751.49 1075.91 1750.96 1068.44 C 1740.75 1068.63 1730.92 1068.96 1720.71 1068.23 C 1728.6 1067.56 1742.8 1067.97 1751.16 1067.94 C 1751.8 1061.08 1753.12 1053.81 1754.09 1046.92 z"/>
<path transform="translate(0,0)" fill="rgb(186,186,189)" d="M 1754.09 1046.92 C 1779.36 1047.13 1810.65 1045.97 1835.12 1047.36 C 1836.06 1051.61 1834.92 1050.32 1837.69 1052.17 C 1851.3 1052.59 1883.63 1052.38 1897.26 1051.35 L 1897.11 1068.29 C 1867.65 1068.73 1837.31 1068.2 1807.72 1068.34 C 1793.22 1068.41 1764.52 1069.21 1751.16 1067.94 C 1751.8 1061.08 1753.12 1053.81 1754.09 1046.92 z"/>
<path transform="translate(0,0)" fill="rgb(67,17,63)" d="M 1691.46 1071.72 C 1691.37 1057.36 1693.61 1043.08 1698.07 1029.44 C 1709.12 995.15 1732.39 979.714 1761.94 964.576 C 1768.64 981.403 1775.45 998.188 1782.36 1014.93 C 1769.04 1021.65 1757.05 1031.29 1754.09 1046.92 C 1753.12 1053.81 1751.8 1061.08 1751.16 1067.94 C 1742.8 1067.97 1728.6 1067.56 1720.71 1068.23 C 1715.32 1068.12 1695.51 1066.97 1692.1 1069.51 L 1691.46 1071.72 z"/>
<path transform="translate(0,0)" fill="rgb(235,121,38)" d="M 1438.44 870.561 C 1457.83 868.172 1475.44 882.049 1477.66 901.459 C 1479.88 920.868 1465.85 938.362 1446.42 940.407 C 1427.23 942.427 1410 928.606 1407.81 909.439 C 1405.62 890.272 1419.29 872.921 1438.44 870.561 z"/>
</svg>